<svg id="eeavkbcwmxo1" xmlns="http://www.w3.org/2000/svg" xmlns:xlink="http://www.w3.org/1999/xlink" viewBox="10 30 100 100" shape-rendering="geometricPrecision" text-rendering="geometricPrecision"><style><![CDATA[#eeavkbcwmxo2_to {animation: eeavkbcwmxo2_to__to 2000ms linear infinite normal forwards}@keyframes eeavkbcwmxo2_to__to { 0% {transform: translate(28px,37.200001px);animation-timing-function: cubic-bezier(0.420000,0,0.580000,1)} 50% {transform: translate(28px,33.998452px);animation-timing-function: cubic-bezier(0.420000,0,0.580000,1)} 100% {transform: translate(28px,37.200001px)} }]]></style><g id="eeavkbcwmxo2_to" transform="translate(28,37.200001)"><g id="eeavkbcwmxo2" transform="translate(0,0)"><path id="eeavkbcwmxo3" d="M59.800000,0.400000L3.500000,32.900000C1.300000,34.100000,0,36.400000,0,38.900000L0,82.800000C0,85,2.300000,86.300000,4.200000,85.200000L60.500000,52.700000C62.700000,51.500000,64,49.100000,64,46.600000L64,2.800000C64,0.600000,61.600000,-0.700000,59.800000,0.400000Z" fill="rgb(40,62,86)" stroke="none" stroke-width="1"/><path id="eeavkbcwmxo4" d="M3.500000,32.900000L59.800000,0.400000C61.100000,-0.400000,62.600000,0.100000,63.400000,1.100000C62.700000,0.800000,61.800000,0.800000,61,1.300000L4.700000,33.800000C2.500000,35,1.200000,37.400000,1.200000,39.900000L1.200000,83.800000C1.200000,84.400000,1.400000,85,1.800000,85.500000C0.800000,85,0,84.100000,0,82.800000L0,38.900000C0,36.400000,1.300000,34.100000,3.500000,32.900000Z" fill="rgb(38,52,68)" stroke="none" stroke-width="1"/><polygon id="eeavkbcwmxo5" points="40.700000,20.900000 5.200000,41.300000 5.200000,44.400000 40.700000,24" fill="rgb(62,90,115)" stroke="none" stroke-width="1"/><polygon id="eeavkbcwmxo6" points="41.200000,29 5.200000,49.800000 5.200000,52.900000 41.200000,32.200000" fill="rgb(62,90,115)" stroke="none" stroke-width="1"/><polygon id="eeavkbcwmxo7" points="60,26.700000 5.200000,58.300000 5.200000,61.400000 60,29.800000" fill="rgb(62,90,115)" stroke="none" stroke-width="1"/><polygon id="eeavkbcwmxo8" points="60,35.200000 5.200000,66.800000 5.200000,69.900000 60,38.300000" fill="rgb(62,90,115)" stroke="none" stroke-width="1"/><polygon id="eeavkbcwmxo9" points="60,43.700000 34.500000,58.400000 34.500000,61.500000 60,46.800000" fill="rgb(62,90,115)" stroke="none" stroke-width="1"/></g></g></svg>