<svg id="e98upcoqulnc1" xmlns="http://www.w3.org/2000/svg" xmlns:xlink="http://www.w3.org/1999/xlink" viewBox="24.500000 33 95 100" shape-rendering="geometricPrecision" text-rendering="geometricPrecision"><style><![CDATA[#e98upcoqulnc2_to {animation: e98upcoqulnc2_to__to 2000ms linear infinite normal forwards}@keyframes e98upcoqulnc2_to__to { 0% {transform: translate(44.993800px,42.240200px)} 50% {transform: translate(44.993800px,37.240200px)} 100% {transform: translate(44.993800px,42.240200px)} }#e98upcoqulnc6_to {animation: e98upcoqulnc6_to__to 2000ms linear infinite normal forwards}@keyframes e98upcoqulnc6_to__to { 0% {transform: translate(26.836600px,38.257700px)} 50% {transform: translate(26.836600px,43.257700px)} 100% {transform: translate(26.836600px,38.257700px)} }]]></style><g id="e98upcoqulnc2_to" transform="translate(44.993800,42.240200)"><g id="e98upcoqulnc2" transform="translate(0,0)"><g id="e98upcoqulnc3"><path id="e98upcoqulnc4" d="M66.900000,24.100000C69.600000,25.700000,71.800000,29.500000,71.800000,32.600000L71.800000,80.300000C71.800000,81.700000,70.900000,83,69.500000,83.500000L67,84.300000C66.200000,84.600000,65.300000,84.500000,64.500000,84.100000L23.100000,60.500000C20.400000,58.900000,18.200000,55.100000,18.200000,52L18.200000,4C18.200000,3,18.700000,2,19.500000,1.400000L20.200000,1C21.900000,-0.200000,24.200000,-0.300000,26,0.700000L66.900000,24.100000Z" fill="rgb(38,52,68)" stroke="none" stroke-width="1"/><path id="e98upcoqulnc5" d="M63.500000,25.800000C66.200000,27.400000,68.400000,31.200000,68.400000,34.300000L68.400000,81C68.400000,84.100000,66.200000,85.400000,63.500000,83.800000L23.100000,60.400000C20.400000,58.800000,18.200000,55,18.200000,51.900000L18.200000,5.200000C18.200000,2.100000,20.400000,0.800000,23.100000,2.400000L63.500000,25.800000Z" fill="rgb(40,62,86)" stroke="none" stroke-width="1"/></g></g></g><g id="e98upcoqulnc6_to" transform="translate(26.836600,38.257700)"><g id="e98upcoqulnc6" transform="translate(0,0)"><g id="e98upcoqulnc7"><path id="e98upcoqulnc8" d="M48.800000,25.100000C51.500000,26.700000,53.700000,30.500000,53.700000,33.600000L53.700000,81.300000C53.700000,82.700000,52.800000,84,51.400000,84.500000L48.900000,85.300000C48.100000,85.600000,47.200000,85.500000,46.400000,85.100000L4.900000,61.500000C2.200000,59.900000,0,56.100000,0,53L0,5.100000C0,4.100000,0.500000,3.100000,1.300000,2.500000L2.100000,2C3.800000,0.800000,6.100000,0.700000,7.900000,1.700000L48.800000,25.100000Z" fill="rgb(38,52,68)" stroke="none" stroke-width="1"/><path id="e98upcoqulnc9" d="M45.400000,26.800000C48.100000,28.400000,50.300000,32.200000,50.300000,35.300000L50.300000,82C50.300000,85.100000,48.100000,86.400000,45.400000,84.800000L4.900000,61.500000C2.200000,59.900000,0,56.100000,0,53L0,6.200000C0,3.100000,2.200000,1.800000,4.900000,3.400000L45.400000,26.800000Z" fill="rgb(40,62,86)" stroke="none" stroke-width="1"/><path id="e98upcoqulnc10" d="M45.400000,26.800000L4.900000,3.400000C2.200000,1.800000,0,3.100000,0,6.200000L0,15.500000L50.300000,45.200000L50.300000,35.200000C50.300000,32.100000,48.100000,28.300000,45.400000,26.800000Z" fill="rgb(46,72,96)" stroke="none" stroke-width="1"/><g id="e98upcoqulnc11"><path id="e98upcoqulnc12" d="M18.900000,46.600000C19.200000,46.300000,19.400000,46,19.400000,45.500000C19.400000,45.100000,19.300000,44.600000,19,44.200000C18.700000,43.700000,18.300000,43.400000,17.900000,43.100000C17.100000,42.600000,16.300000,42.800000,15.600000,43.500000L13.300000,40.800000C13.900000,40.200000,14.600000,39.900000,15.300000,39.800000C16,39.700000,17,40,18.100000,40.700000C19.200000,41.400000,20.200000,42.300000,21.100000,43.500000C22,44.700000,22.400000,45.900000,22.400000,47.200000C22.400000,47.900000,22.200000,48.400000,21.900000,48.800000C21.600000,49.200000,20.900000,49.600000,20,50.100000L17.600000,51.200000L22.800000,54.200000L22.800000,56.800000L13.600000,51.400000L13.600000,49.200000L17.400000,47.500000C18,47.200000,18.600000,46.900000,18.900000,46.600000Z" fill="rgb(63,169,245)" stroke="none" stroke-width="1"/><path id="e98upcoqulnc13" d="M33.100000,49.800000L33.100000,52.300000L27.900000,49.300000L27.900000,51.500000C28.300000,51.600000,28.700000,51.800000,29.200000,52.100000C30.500000,52.800000,31.500000,53.800000,32.500000,55.100000C33.400000,56.400000,33.900000,57.700000,33.900000,59C33.900000,60.300000,33.400000,61.100000,32.500000,61.400000C31.600000,61.700000,30.400000,61.400000,29,60.600000C27.200000,59.600000,25.700000,58.100000,24.600000,56.100000L26.100000,54.900000C26.200000,55.100000,26.400000,55.300000,26.600000,55.600000C26.800000,55.900000,27.100000,56.300000,27.600000,56.800000C28.100000,57.400000,28.600000,57.800000,29.100000,58.100000C29.600000,58.400000,30,58.500000,30.400000,58.400000C30.800000,58.300000,31,58,31,57.400000C31,56.800000,30.800000,56.200000,30.400000,55.700000C30,55.100000,29.400000,54.700000,28.800000,54.300000C28.100000,53.900000,27.400000,53.700000,26.500000,53.700000L25.300000,51.700000L25.300000,45.300000L33.100000,49.800000Z" fill="rgb(63,169,245)" stroke="none" stroke-width="1"/></g></g></g></g></svg>