<svg id="efp0mrrwsg9b1" xmlns="http://www.w3.org/2000/svg" xmlns:xlink="http://www.w3.org/1999/xlink" viewBox="13 20 50 65" shape-rendering="geometricPrecision" text-rendering="geometricPrecision"><style><![CDATA[#efp0mrrwsg9b2_ts {animation: efp0mrrwsg9b2_ts__ts 2000ms linear infinite normal forwards}@keyframes efp0mrrwsg9b2_ts__ts { 0% {transform: translate(37.960785px,80.718914px) scale(1,1)} 50% {transform: translate(37.960785px,80.718914px) scale(1.120000,1.120000)} 100% {transform: translate(37.960785px,80.718914px) scale(1,1)} }]]></style><g id="efp0mrrwsg9b2_ts" transform="translate(37.960785,80.718914) scale(1,1)"><g id="efp0mrrwsg9b2" transform="translate(-16.758646,-51.600000)"><path id="efp0mrrwsg9b3" d="M17.800000,27.700000L17.800000,27.700000C18.100000,27.700000,18.300000,27.900000,18.800000,27.800000C19.100000,27.800000,19.100000,27.800000,19.700000,27.800000L19.700000,27.800000C19.900000,27.900000,24.200000,25.400000,24.400000,25.200000C22.500000,25.800000,19.400000,25.600000,16.600000,20.700000C15.900000,19.600000,13.600000,14.300000,16.500000,12.200000C14.400000,13.600000,12.400000,13.900000,11.500000,15.700000C11.100000,16.700000,11.200000,17.900000,11.200000,19.400000C11.200000,19.700000,11.400000,20.100000,11.600000,20.700000C13.500000,26.800000,17.300000,27.500000,17.800000,27.700000Z" fill="rgb(38,52,68)" stroke="none" stroke-width="1"/><path id="efp0mrrwsg9b4" d="M35.400000,28C35.600000,23.500000,34.200000,19.100000,31.700000,14.500000C31,13,30.600000,12.700000,28.600000,9.500000C28.400000,9.200000,28.400000,9.300000,27.400000,8C25.200000,5.200000,23.300000,3.700000,22.200000,2.900000C22.200000,2.900000,22.100000,2.900000,22.100000,2.800000C21.100000,2.200000,19.700000,1.300000,17.900000,0.600000L17.900000,0.600000C16.500000,0,14.800000,-0.200000,12.700000,0.100000C12.400000,0.200000,12.700000,0.100000,11.700000,0.400000C10.600000,0.700000,8.100000,2.200000,6.400000,3.100000C8.100000,2.300000,10.800000,2.100000,14,3.300000C18.200000,4.900000,44.700000,24.400000,18.900000,48.700000C18.100000,49.500000,17.300000,50.600000,16.600000,51.400000C16.500000,51.500000,16.500000,51.600000,16.500000,51.600000C21.500000,47.500000,32.700000,38,34.700000,31.400000C35,30.700000,35.400000,29.300000,35.400000,28Z" fill="rgb(38,52,68)" stroke="none" stroke-width="1"/><path id="efp0mrrwsg9b5" d="M16.800000,4.200000C20.700000,6.400000,24.300000,10.300000,27,15C32,23.800000,33.600000,32.800000,26.800000,40.800000L16.600000,51.800000L5,25.800000C0.700000,16.700000,1.400000,6.100000,6.500000,3.200000C9.200000,1.600000,12.900000,2,16.800000,4.200000ZM16.800000,26.900000C19.700000,28.600000,22.100000,27.200000,22.100000,23.900000C22.100000,20.600000,19.700000,16.400000,16.800000,14.800000C13.900000,13.100000,11.500000,14.500000,11.500000,17.800000C11.500000,21.100000,13.900000,25.200000,16.800000,26.900000" fill="rgb(55,88,122)" stroke="none" stroke-width="1"/></g></g></svg>