<svg id="e4fksvyxl0qx1" xmlns="http://www.w3.org/2000/svg" xmlns:xlink="http://www.w3.org/1999/xlink" viewBox="16 53 65 100" shape-rendering="geometricPrecision" text-rendering="geometricPrecision"><style><![CDATA[#e4fksvyxl0qx4_to {animation: e4fksvyxl0qx4_to__to 2000ms linear infinite normal forwards}@keyframes e4fksvyxl0qx4_to__to { 0% {transform: translate(0px,11.750000px)} 50% {transform: translate(0px,16.750000px)} 100% {transform: translate(0px,11.750000px)} }]]></style><g id="e4fksvyxl0qx2" transform="matrix(1 0 0 1 0 14)"><path id="e4fksvyxl0qx3" d="M45,26.900000L45,26.900000C44,26.500000,42.800000,26.500000,41.800000,27.100000L3.300000,49.500000C1.500000,50.500000,0,53.100000,0,55.200000L0,87.400000C0,88.700000,1,89.700000,2.300000,89.700000L3.700000,89.700000L43.400000,66.900000C45.200000,65.800000,46.700000,63.300000,46.700000,61.100000L46.700000,29.500000C46.700000,28.400000,46,27.400000,45,26.900000Z" transform="matrix(1 0 0 1 26.65000000000006 45.13069982000005)" fill="rgb(38,52,68)" stroke="none" stroke-width="1"/></g><g id="e4fksvyxl0qx4_to" transform="translate(0,11.750000)"><g id="e4fksvyxl0qx4" transform="translate(0,0)"><g id="e4fksvyxl0qx5"><path id="e4fksvyxl0qx6" d="M43.700000,0.500000L44.100000,0.900000C44.500000,1.200000,44.700000,1.700000,44.700000,2.200000L44.700000,58.100000C44.700000,59.300000,43.800000,60.900000,42.700000,61.500000L4.900000,83.400000C3.800000,84,2.900000,83.500000,2.900000,82.300000L2.900000,24.800000C2.900000,23.600000,3.800000,22,4.900000,21.400000L41.600000,0.200000C42.300000,-0.200000,43.200000,-0.100000,43.700000,0.500000Z" transform="matrix(1 0 0 1 26.65000000000006 45.13069982000005)" fill="rgb(38,52,68)" stroke="none" stroke-width="1"/><path id="e4fksvyxl0qx7" d="M42.800000,1.200000C43.900000,0.600000,44.800000,1.100000,44.800000,2.300000L44.800000,59.800000C44.800000,61,43.900000,62.600000,42.800000,63.200000L6.400000,84.200000C5.300000,84.800000,4.400000,84.300000,4.400000,83.100000L4.400000,25.600000C4.400000,24.400000,5.300000,22.800000,6.400000,22.200000L42.800000,1.200000Z" transform="matrix(1 0 0 1 26.65000000000006 45.13069982000005)" fill="rgb(40,62,86)" stroke="none" stroke-width="1"/><g id="e4fksvyxl0qx8"><path id="e4fksvyxl0qx9" d="M30,25.500000C30.400000,25.300000,30.800000,25.400000,31.100000,26C31.400000,26.600000,31.600000,27.400000,31.600000,28.500000C31.600000,30.900000,31,33.300000,29.800000,35.600000C28.600000,37.900000,27,39.600000,24.900000,40.800000C22.900000,42,21.200000,42.100000,19.800000,41.200000C18.400000,40.300000,17.700000,38.700000,17.700000,36.400000C17.700000,34.100000,18.400000,31.700000,19.700000,29.500000C21,27.200000,22.600000,25.500000,24.500000,24.400000C26,23.500000,27.300000,23.400000,28.500000,24L29.400000,21.600000C28.800000,21.300000,28,21.300000,27.100000,21.400000C26.200000,21.600000,25.300000,21.900000,24.500000,22.300000C22,23.700000,19.900000,25.900000,18.200000,28.700000C16.500000,31.600000,15.700000,34.500000,15.700000,37.300000C15.700000,40.200000,16.600000,42.100000,18.300000,43.200000C20.100000,44.200000,22.200000,44,24.700000,42.600000C27.200000,41.200000,29.300000,39,30.900000,36.100000C32.600000,33.200000,33.400000,30.300000,33.400000,27.300000C33.400000,25.400000,33.100000,24.100000,32.400000,23.300000C31.700000,22.500000,30.800000,22.500000,29.700000,23.100000C29.100000,23.400000,28.600000,23.900000,28.100000,24.600000C27.600000,25.300000,27.300000,25.900000,27.100000,26.700000C26.300000,25.900000,25.200000,25.900000,24,26.600000C22.700000,27.300000,21.600000,28.500000,20.700000,30.100000C19.800000,31.700000,19.300000,33.400000,19.300000,35.100000C19.300000,36.800000,19.700000,38,20.600000,38.700000C21.400000,39.400000,22.500000,39.300000,23.900000,38.600000C24.400000,38.300000,24.800000,38,25.200000,37.500000C25.600000,37,25.900000,36.600000,26.100000,36.300000L26.400000,35.800000L26.400000,37L29.200000,35.400000L29.200000,27.200000C29.300000,26.300000,29.600000,25.800000,30,25.500000ZM26.600000,31.400000C26.600000,32.300000,26.400000,33.100000,26,33.900000C25.600000,34.700000,25.100000,35.300000,24.400000,35.600000C23.800000,36,23.200000,36,22.900000,35.600000C22.500000,35.200000,22.300000,34.700000,22.300000,33.800000C22.300000,32.900000,22.500000,32.100000,22.900000,31.300000C23.300000,30.500000,23.800000,29.900000,24.500000,29.500000C25.200000,29.100000,25.700000,29.100000,26.100000,29.500000C26.400000,29.900000,26.600000,30.500000,26.600000,31.400000Z" transform="matrix(1 0 0 1 26.65000000000006 45.13069982000005)" fill="rgb(63,169,245)" stroke="none" stroke-width="1"/></g></g></g></g><g id="e4fksvyxl0qx10" transform="matrix(1 0 0 1 0 14)"><path id="e4fksvyxl0qx11" d="M45.600000,64.600000C45,65.500000,44.200000,66.400000,43.400000,66.800000L4.500000,89.300000C2.700000,90.400000,1.200000,89.500000,1.200000,87.400000L1.200000,55.600000C1.200000,54.500000,1.600000,53.200000,2.300000,52.100000L45.600000,64.600000Z" transform="matrix(1 0 0 1 26.65000000000006 45.13069982000005)" fill="rgb(62,90,115)" stroke="none" stroke-width="1"/><path id="e4fksvyxl0qx12" d="M23.900000,58.400000L45.600000,27.100000C46.300000,27.400000,46.700000,28.200000,46.700000,29.300000L46.700000,61.100000C46.700000,62.200000,46.300000,63.500000,45.600000,64.600000L23.900000,58.400000Z" transform="matrix(1 0 0 1 26.65000000000006 45.13069982000005)" fill="rgb(52,75,96)" stroke="none" stroke-width="1"/></g></svg>