<svg id="e22goffml39q1" xmlns="http://www.w3.org/2000/svg" xmlns:xlink="http://www.w3.org/1999/xlink" viewBox="55 95 180 180" shape-rendering="geometricPrecision" text-rendering="geometricPrecision"><style><![CDATA[#e22goffml39q2_to {animation: e22goffml39q2_to__to 2000ms linear infinite normal forwards}@keyframes e22goffml39q2_to__to { 0% {transform: translate(0px,0px);animation-timing-function: cubic-bezier(0.420000,0,0.580000,1)} 50% {transform: translate(0px,-5.685394px);animation-timing-function: cubic-bezier(0.420000,0,0.580000,1)} 100% {transform: translate(0px,0px)} }#e22goffml39q18_to {animation: e22goffml39q18_to__to 2000ms linear infinite normal forwards}@keyframes e22goffml39q18_to__to { 0% {transform: translate(80.199997px,90.926788px);animation-timing-function: cubic-bezier(0.420000,0,0.580000,1)} 50% {transform: translate(80.199997px,99.379612px);animation-timing-function: cubic-bezier(0.420000,0,0.580000,1)} 100% {transform: translate(80.199997px,90.926788px)} }#e22goffml39q23_to {animation: e22goffml39q23_to__to 2000ms linear infinite normal forwards}@keyframes e22goffml39q23_to__to { 0% {transform: translate(80.199997px,99.379612px);animation-timing-function: cubic-bezier(0.420000,0,0.580000,1)} 50% {transform: translate(80.199997px,95px);animation-timing-function: cubic-bezier(0.420000,0,0.580000,1)} 100% {transform: translate(80.199997px,99.379612px)} }]]></style><defs><linearGradient id="e22goffml39q5-fill" x1="9.810000" y1="86.520400" x2="115.610000" y2="86.520400" spreadMethod="pad" gradientUnits="userSpaceOnUse"><stop id="e22goffml39q5-fill-0" offset="0%" stop-color="rgb(38,52,68)"/><stop id="e22goffml39q5-fill-1" offset="63.470000%" stop-color="rgba(38,53,70,0.3653)"/><stop id="e22goffml39q5-fill-2" offset="86.310000%" stop-color="rgba(39,57,77,0.1369)"/><stop id="e22goffml39q5-fill-3" offset="100%" stop-color="rgba(40,62,86,0)"/></linearGradient></defs><g id="e22goffml39q2_to" transform="translate(0,0)"><g id="e22goffml39q2" transform="translate(0,0)"><g id="e22goffml39q3" transform="matrix(1 0 0 1 80.19999695000001 99.37961196999996)"><g id="e22goffml39q4"><path id="e22goffml39q5" d="M113.100000,16.700000C114.600000,15.800000,115.800000,16.500000,115.800000,18.200000L115.800000,94.800000C115.800000,95.500000,115.400000,96.300000,114.800000,96.600000L11,156.600000C10.400000,156.900000,10,156.700000,10,156L10,79.400000C10,77.700000,11.200000,75.600000,12.700000,74.800000L113.100000,16.700000Z" opacity="0.4" fill="url(#e22goffml39q5-fill)" stroke="none" stroke-width="1"/></g><g id="e22goffml39q6"><path id="e22goffml39q7" d="M125.500000,25L122.400000,101.400000C122.400000,102.100000,122,102.900000,121.400000,103.200000L20,164.800000C19.400000,165.100000,16.100000,163.500000,16.100000,162.800000L16.100000,86C16.100000,84.300000,17.300000,82.200000,18.800000,81.400000L119.700000,23.100000C121.200000,22.200000,125.500000,23.400000,125.500000,25Z" fill="rgb(40,62,86)" stroke="none" stroke-width="1"/><path id="e22goffml39q8" d="M19.300000,120L19.300000,87.400000C19.300000,85.700000,20.500000,83.600000,22,82.800000L122.900000,24.500000C124.400000,23.600000,125.600000,24.300000,125.600000,26L125.600000,102.900000C125.600000,103.600000,125.200000,104.400000,124.600000,104.700000L20.300000,164.800000C19.700000,165.100000,19.300000,164.900000,19.300000,164.200000L19.300000,129.500000L19.300000,120Z" fill="rgb(40,62,86)" stroke="none" stroke-width="1"/><ellipse id="e22goffml39q9" rx="3.600000" ry="2.200000" transform="matrix(0.50470000000000 -0.86330000000000 0.86330000000000 0.50470000000000 25.71258000000000 88.34320000000004)" fill="rgb(64,176,228)" stroke="none" stroke-width="1"/><ellipse id="e22goffml39q10" rx="3.600000" ry="2.200000" transform="matrix(0.50470000000000 -0.86330000000000 0.86330000000000 0.50470000000000 33.71361000000001 84.40667000000003)" fill="rgb(64,176,228)" stroke="none" stroke-width="1"/><ellipse id="e22goffml39q11" rx="3.600000" ry="2.200000" transform="matrix(0.50470000000000 -0.86330000000000 0.86330000000000 0.50470000000000 41.97592000000002 79.43978000000004)" fill="rgb(64,176,228)" stroke="none" stroke-width="1"/><path id="e22goffml39q12" d="M116.900000,49.089907C117.600000,48.712793,118.200000,48.995629,118.200000,49.749857L118.200000,95.474982C118.200000,96.229211,117.600000,97.171997,116.900000,97.454832L89.100000,112.633688C88.400000,113.010803,87.800000,112.727967,87.800000,111.973738L87.800000,66.248614C87.800000,65.494385,88.400000,64.551599,89.100000,64.268763L116.900000,49.089907Z" opacity="0.3" fill="rgb(43,98,157)" stroke="none" stroke-width="1"/><path id="e22goffml39q13" d="M120.700000,50.589907C121.400000,50.212793,122,50.495629,122,51.249857L122,96.974982C122,97.729211,121.400000,98.671997,120.700000,98.954832L92.900000,114.133688C92.200000,114.510803,91.600000,114.227967,91.600000,113.473738L91.600000,67.748614C91.600000,66.994385,92.200000,66.051599,92.900000,65.768763L120.700000,50.589907Z" opacity="0.6" fill="rgb(43,98,157)" stroke="none" stroke-width="1"/><g id="e22goffml39q14"><path id="e22goffml39q15" d="M78.700000,73.200000C79.800000,72.500000,80.700000,73,80.700000,74.300000L80.700000,114.400000C80.700000,115.700000,79.800000,117.200000,78.700000,117.900000L26.100000,148.200000C25,148.900000,24.100000,148.400000,24.100000,147.100000L24.100000,107.100000C24.100000,105.800000,25,104.300000,26.100000,103.600000L78.700000,73.200000Z" opacity="0.2" fill="rgb(45,115,190)" stroke="none" stroke-width="1"/><path id="e22goffml39q16" d="M82.800000,76.800000C83.900000,76.100000,84.800000,76.600000,84.800000,77.900000L84.800000,118C84.800000,119.300000,83.900000,120.800000,82.800000,121.500000L30.200000,151.800000C29.100000,152.500000,28.200000,152,28.200000,150.700000L28.200000,110.700000C28.200000,109.400000,29.100000,107.900000,30.200000,107.200000L82.800000,76.800000Z" opacity="0.6" fill="rgb(45,115,190)" stroke="none" stroke-width="1"/></g></g></g><g id="e22goffml39q17"><g id="e22goffml39q18_to" transform="translate(80.199997,90.926788)"><g id="e22goffml39q18" transform="translate(0,0)"><g id="e22goffml39q19"><g id="e22goffml39q20"><path id="e22goffml39q21" d="M84.800000,106.752824C80.200000,107.352824,77.600000,103.900000,74.900000,102.800000C71.900000,101.400000,69.600000,100.100000,66.500000,102.100000C59.900000,106,57.900000,119.600000,51.900000,123.200000C45,127.400000,43.900000,121.100000,38.600000,124.200000C34.800000,126.500000,28.200000,145.100000,28.200000,145.100000L28.200000,154.100000L33.800000,150.900000L84.600000,119.500000" fill="rgb(15,142,194)" stroke="none" stroke-width="1"/><path id="e22goffml39q22" d="M84.800000,106.885668C82,106.685668,80.200000,105.700000,78.200000,104.900000C75.200000,103.500000,72.900000,102.200000,69.800000,104.200000C63.400000,108.100000,61.400000,121.700000,55.200000,125.300000C48.300000,129.500000,47.200000,123.200000,41.900000,126.300000C35.700000,130.200000,28.200000,154.100000,28.200000,154.100000L84.700000,119.500000" fill="rgb(0,193,248)" stroke="none" stroke-width="1"/></g></g></g></g><g id="e22goffml39q23_to" transform="translate(80.199997,99.379612)"><g id="e22goffml39q23" transform="translate(0,0)"><g id="e22goffml39q24"><g id="e22goffml39q25"><path id="e22goffml39q26" d="M84.700000,120.720390L31.400000,152.500000L28.100000,154.400000L28.100000,144.300000C28.500000,144.200000,28.700000,144.100000,29,144C40.700000,137.100000,39.200000,127.500000,45.300000,123.800000C47,122.700000,48.400000,123.100000,49.500000,123.600000C50.500000,124.200000,49.100000,123.400000,49.100000,123.400000L49.100000,123.400000C49.100000,123.400000,52.900000,125.100000,54.400000,127.100000C55,127.900000,57.700000,127,60.600000,125.500000C68.900000,121.200000,69.600000,107.800000,72.900000,100.700000C73.700000,99.100000,74.700000,97.700000,75.900000,97C77.300000,96.200000,78.700000,96.300000,79.900000,97.100000L79.900000,97.100000L79.900000,97.100000C80,97.100000,80,97.200000,80.200000,97.200000L83.400000,99.100000L83.400000,99.100000C83.900000,99.500000,84.300000,99.900000,84.800000,100.500000" fill="rgb(40,50,65)" stroke="none" stroke-width="1"/><path id="e22goffml39q27" d="M84.800000,100.500000C83,98.600000,81,97.800000,79,99C77.700000,99.700000,76.800000,101,76,102.800000C72.600000,109.800000,72,123.300000,63.700000,127.700000C53.500000,133.100000,54.500000,121.900000,48.500000,125.800000C42.600000,129.700000,43.900000,139.200000,32.200000,146.100000C31.700000,146.400000,28.500000,148.500000,28.100000,148.600000L28,154.400000L84.800000,120.720390" fill="rgb(76,86,99)" stroke="none" stroke-width="1"/></g></g></g></g></g><g id="e22goffml39q28" transform="matrix(1 0 0 1 0 -3.55601500999182)"><polygon id="e22goffml39q29" points="89.900000,122.200000 24.400000,160.200000 24.400000,154.100000 89.900000,115.779610" transform="matrix(1 0 0 1 78.09999695000022 101.45601665999990)" fill="rgb(40,62,86)" stroke="none" stroke-width="1"/></g></g></g></svg>